<svg width="70" height="70" viewBox="0 0 70 70" fill="none" xmlns="http://www.w3.org/2000/svg">
<circle cx="35" cy="35" r="35" fill="white"/>
<path d="M27.6729 24.6709C30.4557 28.3844 30.7564 32.7814 28.3374 34.4994C25.9255 36.2172 21.7107 34.5952 18.9293 30.8822C16.1465 27.1687 15.8454 22.7708 18.2581 21.057C20.6721 19.346 24.8905 20.9584 27.6729 24.6709ZM14.0249 36.2767C12.4691 37.9799 13.5174 41.2477 16.3676 43.576C19.2177 45.9044 22.7852 46.4118 24.34 44.7069C25.8957 43.0037 24.8475 39.7359 21.9905 37.4109C19.1458 35.0788 15.5788 34.57 14.0249 36.2767ZM30.5864 23.2367C31.8331 27.7063 35.1334 30.6267 37.9644 29.7602C40.7967 28.8965 42.0875 24.5642 40.8422 20.095C39.5965 15.6249 36.2948 12.7041 33.4642 13.5714C30.6292 14.4443 29.3411 18.7675 30.5864 23.2367ZM44.1411 26.5056C44.2481 30.1843 46.199 33.0089 48.4971 32.8138C50.7902 32.6256 52.5691 29.4852 52.4563 25.8093C52.356 22.1272 50.4056 19.3036 48.1071 19.4978C45.8082 19.6888 44.0351 22.8264 44.1411 26.5056ZM33.1916 32.1588L33.1943 32.1642C33.2368 32.1432 33.271 32.1197 33.3136 32.0988L33.1916 32.1588ZM33.0329 32.2369C33.0697 32.2188 33.1149 32.2033 33.1575 32.1823L33.1548 32.1769L33.0329 32.2369ZM50.9668 36.6925C45.3672 32.9168 40.2135 28.789 33.1943 32.1642C33.1885 32.167 33.1821 32.1713 33.1705 32.177L33.1589 32.1827C26.2032 35.6871 26.3252 42.2908 25.9024 49.0311C25.4756 55.8124 30.5581 57.2135 33.4927 57.1732C36.4332 57.13 39.4372 55.2789 40.7851 53.5833C41.9463 52.1268 42.6895 51.9437 42.8734 51.9167L42.884 51.9382C42.884 51.9382 42.8872 51.93 42.8904 51.9217C42.9056 51.9209 42.9199 51.9206 42.9199 51.9206L42.9092 51.899C43.0428 51.7698 43.6402 51.2929 45.5037 51.2605C47.6685 51.2268 50.9676 49.975 52.7893 47.6739C54.6169 45.37 56.6057 40.4868 50.9668 36.6925Z" fill="black"/>
</svg>
